<svg width="12" height="14" viewBox="0 0 12 14" fill="none" xmlns="http://www.w3.org/2000/svg">
<path d="M8.00027 4.00011L2.79402 9.29386C2.62166 9.48408 2.52905 9.7333 2.53537 9.98992C2.54169 10.2465 2.64645 10.4909 2.82796 10.6724C3.00947 10.8539 3.25384 10.9587 3.51046 10.965C3.76708 10.9713 4.0163 10.8787 4.20652 10.7064L10.4128 4.41261C10.7575 4.03216 10.9427 3.53371 10.9301 3.02048C10.9174 2.50724 10.7079 2.01851 10.3449 1.65549C9.98186 1.29247 9.49314 1.08295 8.9799 1.07031C8.46666 1.05767 7.96822 1.24289 7.58777 1.58761L1.38152 7.88136C0.819594 8.44328 0.503906 9.20542 0.503906 10.0001C0.503906 10.7948 0.819594 11.5569 1.38152 12.1189C1.94345 12.6808 2.70559 12.9965 3.50027 12.9965C4.29496 12.9965 5.05709 12.6808 5.61902 12.1189L10.7503 7.00011" stroke="#E7E9EA" stroke-linecap="round" stroke-linejoin="round"/>
</svg>
